<svg width="512" height="512" viewBox="0 0 512 512" fill="none" xmlns="http://www.w3.org/2000/svg">
<g clip-path="url(#clip0_8_97)">
<path d="M454.186 305.547H305.543V181.678H454.186V305.547Z" fill="#F1DE91"/>
<path d="M226.746 354.732L267.673 313.805H511.992V297.289H487.218V165.163C496.401 165.163 504.774 160.133 509.077 152.049C512.19 146.211 512.851 139.513 510.918 133.18C508.986 126.846 504.708 121.643 499.291 118.769L397.066 56.4304C386.463 49.9561 373.275 49.9561 362.672 56.4304L290.093 100.709C283.751 91.4605 273.783 85.0358 262.255 83.2026C255.038 54.1759 228.596 33.0356 198.19 33.0356C191.534 33.0356 185.118 34.0844 179.032 35.9424C165.679 13.9433 141.615 0.00390625 115.611 0.00390625C83.8263 0.00390625 55.8897 20.1367 45.5508 49.7167C20.0915 51.7564 0 73.1196 0 99.0991C0 126.425 22.2221 148.647 49.5476 148.647H91.052C98.5997 158.614 110.442 165.163 123.869 165.163H272.404C272.446 165.163 272.479 165.171 272.512 165.171V297.289H260.835L212.724 345.4C199.991 337.373 186.968 330.47 173.417 325.152V303.252C193.07 295.976 206.448 277.363 206.448 256C206.448 227.559 192.864 200.399 170.113 183.33L165.159 179.614L160.204 183.33C137.453 200.399 123.869 227.559 123.869 256C123.869 277.371 137.255 295.993 156.901 303.26V319.627C143.762 315.944 130.095 313.805 115.611 313.805C93.4385 313.805 74.0324 317.364 57.8055 322.179V295.349C82.0838 287.487 99.0952 264.671 99.0952 238.666C99.0952 210.821 84.2639 184.618 60.382 170.291L49.5476 163.792L38.7132 170.291C14.8312 184.618 0 210.821 0 238.666C0 264.671 17.0113 287.487 41.2897 295.349V327.86C17.7133 337.184 4.08768 347.861 3.09672 348.646L13.4026 361.553C13.799 361.239 53.4866 330.321 115.611 330.321C172.772 330.321 216.688 365.872 267.549 407.021C307.88 439.664 349.633 473.316 403.4 493.688C403.829 494.324 404.391 494.86 404.853 495.472H0V511.987H437.67H445.928H462.444H470.702H511.992V495.472H503.519C508.763 488.56 511.992 480.037 511.992 470.706V462.448H487.218C473.667 462.448 461.717 469.104 454.186 479.22C446.655 469.104 434.706 462.448 421.155 462.448H396.381V470.706C396.381 471.524 396.571 472.283 396.62 473.084C352.316 453.794 315.849 424.85 280.662 396.385H305.543H313.801H330.317H338.575H437.67H445.928H462.444H470.702H511.992V379.869H503.519C508.763 372.949 511.992 364.426 511.992 355.095V346.837H487.218C473.667 346.837 461.717 353.493 454.186 363.609C446.655 353.493 434.706 346.837 421.155 346.837H396.381V355.095C396.381 364.426 399.61 372.949 404.853 379.869H371.4C376.636 372.949 379.865 364.426 379.865 355.095V346.837H355.091C341.54 346.837 329.591 353.493 322.059 363.609C314.528 353.493 302.579 346.837 289.028 346.837H264.254V355.095C264.254 364.426 267.483 372.949 272.726 379.869H260.141C249.034 371.033 237.961 362.552 226.746 354.732ZM371.26 70.5266C373.919 68.9081 376.892 68.0988 379.865 68.0988C382.838 68.0988 385.811 68.9081 388.47 70.5266L491.116 133.105C493.056 134.137 494.485 135.872 495.129 137.986C495.773 140.091 495.55 142.329 494.51 144.278C493.065 146.97 490.273 148.647 487.21 148.647C485.864 148.647 484.526 148.308 483.799 147.945L388.577 88.7354C383.209 85.3992 376.529 85.3992 371.144 88.7354L276.368 147.689C272.536 149.753 267.301 148.168 265.228 144.278C264.171 142.296 263.957 140.124 264.609 137.986C265.253 135.872 266.673 134.137 269.043 132.858L371.26 70.5266ZM49.5476 132.131C31.3306 132.131 16.5159 117.316 16.5159 99.0991C16.5159 80.8986 31.3058 66.0921 49.5146 66.0921H49.5641C50.1174 66.1665 50.6707 66.2408 51.2487 66.2655L58.0037 66.6124L59.6718 60.0556C66.1791 34.423 89.1857 16.5198 115.611 16.5198C135.158 16.5198 153.366 26.6027 163.945 42.7139C149.138 51.7564 138.081 66.4307 133.968 83.888C130.649 83.0292 127.255 82.5832 123.869 82.5832C101.102 82.5832 82.5793 101.106 82.5793 123.873C82.5793 126.697 82.8683 129.464 83.4134 132.131H49.5476ZM99.0952 123.873C99.0952 110.214 110.21 99.0991 123.869 99.0991C128.188 99.0991 132.399 100.288 136.371 102.633L147.982 109.488L148.808 96.0271C150.402 69.9651 172.095 49.5515 198.19 49.5515C222.667 49.5515 243.725 67.8263 247.176 92.0633L248.209 99.289L255.509 99.1569L256.45 99.0991C264.27 99.2395 271.471 103.154 275.98 109.306L260.868 118.522C255.021 121.627 250.744 126.829 248.82 133.171C247.259 138.308 247.482 143.667 249.257 148.638H123.869C110.21 148.647 99.0952 137.531 99.0952 123.873ZM289.028 159.25L379.865 102.766L470.702 159.233V297.289H388.123V247.742H454.186V231.226H388.123V181.678H371.607V231.226H305.543V247.742H371.607V297.289H289.028V159.25ZM140.385 256C140.385 234.876 149.543 214.611 165.159 200.606C180.774 214.611 189.932 234.876 189.932 256C189.932 268.197 183.442 279.048 173.417 285.076V242.903L179.255 237.056L167.57 225.388L156.901 236.065V285.076C146.876 279.048 140.385 268.197 140.385 256ZM16.5159 238.666C16.5159 216.585 28.2752 195.816 47.2106 184.453L49.5476 183.049L51.8846 184.453C70.82 195.816 82.5793 216.585 82.5793 238.666C82.5793 255.579 72.579 270.575 57.8055 277.569V233.175L65.1881 218.393L50.4147 211.011L41.2897 229.277V277.561C26.5162 270.575 16.5159 255.579 16.5159 238.666ZM487.218 478.964H494.064C490.653 488.576 481.47 495.48 470.702 495.48H463.856C467.267 485.868 476.45 478.964 487.218 478.964ZM421.155 478.964C431.923 478.964 441.106 485.868 444.516 495.48H437.67C426.902 495.48 417.719 488.576 414.309 478.964H421.155ZM487.218 363.353H494.064C490.653 372.965 481.47 379.869 470.702 379.869H463.856C467.267 370.257 476.45 363.353 487.218 363.353ZM414.309 363.353H421.155C431.923 363.353 441.106 370.257 444.516 379.869H437.67C426.902 379.869 417.719 372.965 414.309 363.353ZM355.091 363.353H361.937C358.526 372.965 349.344 379.869 338.575 379.869H331.729C335.14 370.257 344.323 363.353 355.091 363.353ZM282.182 363.353H289.028C299.796 363.353 308.979 370.257 312.389 379.869H305.543C294.775 379.869 285.592 372.965 282.182 363.353Z" fill="#EAB317"/>
<path d="M379.865 165.162C393.523 165.162 404.639 154.047 404.639 140.389C404.639 126.73 393.523 115.615 379.865 115.615C366.206 115.615 355.091 126.73 355.091 140.389C355.091 154.047 366.206 165.162 379.865 165.162ZM379.865 132.131C384.415 132.131 388.123 135.838 388.123 140.389C388.123 144.939 384.415 148.646 379.865 148.646C375.315 148.646 371.607 144.939 371.607 140.389C371.607 135.838 375.315 132.131 379.865 132.131Z" fill="#EAB317"/>
</g>
<defs>
<clipPath id="clip0_8_97">
<rect width="512" height="512" fill="white"/>
</clipPath>
</defs>
</svg>
