<svg width="512" height="512" viewBox="0 0 512 512" fill="none" xmlns="http://www.w3.org/2000/svg">
<g clip-path="url(#clip0_8_170)">
<path d="M140.385 511.926C81.192 511.926 33.0317 463.766 33.0317 404.573C33.0317 345.38 81.192 297.22 140.385 297.22C199.578 297.22 247.738 345.38 247.738 404.573C247.738 463.766 199.578 511.926 140.385 511.926ZM140.385 338.509C103.959 338.509 74.3214 368.147 74.3214 404.573C74.3214 440.999 103.959 470.636 140.385 470.636C176.811 470.636 206.448 440.999 206.448 404.573C206.448 368.147 176.811 338.509 140.385 338.509Z" fill="#F1DE91"/>
<path d="M487.226 65.9976H442.848C423.392 65.9976 406.398 79.8214 402.434 98.8559L399.866 111.177C387.834 72.4057 368.733 49.4817 346.833 49.4817C338.047 49.4817 325.734 53.4042 313.562 69.7302C312.249 20.9258 290.349 5.97893 283.437 2.51886C271.942 -3.17911 257.235 1.45359 250.909 12.7504C244.757 23.8243 248.085 38.0197 258.275 45.0142C259.324 46.4098 263.271 52.8592 263.998 69.0861C251.983 53.3382 239.885 49.4817 231.222 49.4817C223.063 49.4817 211.725 52.917 200.321 66.683C194.169 57.8305 187.678 53.6933 184.457 52.0747C172.962 46.3685 158.263 51.0094 151.929 62.3063C145.777 73.3802 149.105 87.5756 159.296 94.57C160.361 95.9904 164.399 102.622 165.035 119.393C161.674 120.459 158.445 121.796 155.282 123.266L137.362 89.4171C127.007 69.8706 106.849 57.7314 84.3217 57.7314C79.3587 57.7314 74.5609 58.4085 69.9529 59.5564L65.9809 31.8015L49.6302 34.1385L54.1885 66.0224C52.2232 67.1785 50.3404 68.4502 48.5319 69.821L22.3542 43.6434L10.6775 55.3201L36.8469 81.4895C36.5909 81.828 36.3266 82.1666 36.0789 82.5134H0V99.0293H27.6641C25.806 104.793 24.7738 110.921 24.7738 117.288C24.7738 134.291 32.0655 150.509 44.7662 161.79L85.643 198.124H16.5159C7.40736 198.124 0 205.532 0 214.64V231.156C0 240.265 7.40736 247.672 16.5159 247.672H18.0023L41.1906 363.605C44.4524 355.735 48.6805 348.394 53.627 341.59L34.8485 247.672H371.442L340.475 396.315H247.325C247.532 399.048 247.746 401.782 247.746 404.573C247.746 407.364 247.54 410.097 247.325 412.831H252.792L285.279 485.476C293.446 501.793 309.854 511.926 328.088 511.926C350.624 511.926 370.327 495.914 374.927 473.84L449.578 115.545H487.243C500.901 115.545 512.017 104.43 512.017 90.7714C512.017 77.1128 500.885 65.9976 487.226 65.9976ZM346.833 65.9976C365.29 65.9976 383.721 100.293 391.88 149.56L381.764 198.124H363.143C361.648 147.536 346.676 104.859 324.628 82.596C331.762 71.8607 339.525 65.9976 346.833 65.9976ZM123.869 198.124C123.869 161.699 153.507 132.061 189.932 132.061C226.358 132.061 255.996 161.699 255.996 198.124H123.869ZM242.354 134.373C253.378 102.242 270.976 82.5134 289.028 82.5134C319.062 82.5134 344.562 134.662 346.635 198.124H272.512C272.512 172.484 260.761 149.535 242.354 134.373ZM265.327 20.8019C267.474 16.9785 272.289 15.4012 276.071 17.3006C278.111 18.3163 295.023 27.9781 296.98 66.7821C294.362 66.2784 291.72 65.9976 289.028 65.9976C286.121 65.9976 283.264 66.3527 280.439 66.939C279.035 41.9505 270.67 33.7338 268.862 32.2557L267.945 31.6033C264.568 29.5471 263.337 24.3859 265.327 20.8019ZM231.222 65.9976C238.539 65.9976 246.301 71.869 253.444 82.6043C243.469 92.6707 234.814 107.031 228.175 125.001C223.848 122.73 219.314 120.789 214.582 119.303C214.178 104.281 211.866 92.4312 208.587 83.1906C215.821 72.1084 223.773 65.9976 231.222 65.9976ZM169.874 81.8198L168.957 81.1674C165.588 79.1112 164.349 73.95 166.348 70.3578C168.503 66.5343 173.317 64.9736 177.091 66.8564C179.123 67.8721 195.944 77.4596 197.992 115.95C195.341 115.694 192.658 115.545 189.941 115.545C187.067 115.545 184.226 115.694 181.427 115.983C179.932 91.4072 171.674 83.2897 169.874 81.8198ZM41.2897 117.288C41.2897 93.5626 60.5967 74.2555 84.7346 74.2555C100.714 74.2555 115.281 83.0337 122.762 97.1465L141.062 131.714C121.342 146.265 108.328 169.321 107.485 195.457L55.7328 149.436C46.5582 141.293 41.2897 129.567 41.2897 117.288ZM16.5159 231.156V214.64H378.321L374.877 231.156H16.5159ZM337.031 412.831L327.493 458.604L307.022 412.831H337.031ZM487.226 99.0293H436.126L358.749 470.463C355.735 484.914 342.828 495.41 328.071 495.41C316.13 495.41 305.387 488.771 300.192 478.407L270.877 412.831H288.928L314.817 470.702C317.344 475.756 322.423 478.894 328.071 478.894C335.049 478.894 341.152 473.939 342.589 467.094L418.603 102.225C420.973 90.7962 431.171 82.5052 442.848 82.5052H487.226C491.785 82.5052 495.484 86.2047 495.484 90.7631C495.484 95.3215 491.785 99.0293 487.226 99.0293Z" fill="#EAB317"/>
<path d="M140.385 330.251C99.4007 330.251 66.0635 363.589 66.0635 404.573C66.0635 445.557 99.4007 478.894 140.385 478.894C181.369 478.894 214.706 445.557 214.706 404.573C214.706 363.589 181.369 330.251 140.385 330.251ZM197.53 396.315H163.639C161.145 389.32 155.637 383.812 148.643 381.319V347.428C173.904 351.07 193.888 371.054 197.53 396.315ZM140.385 412.831C135.826 412.831 132.127 409.131 132.127 404.573C132.127 400.014 135.826 396.315 140.385 396.315C144.943 396.315 148.643 400.014 148.643 404.573C148.643 409.131 144.943 412.831 140.385 412.831ZM132.127 347.428V381.319C125.132 383.812 119.624 389.32 117.131 396.315H83.24C86.8817 371.054 106.866 351.07 132.127 347.428ZM83.24 412.831H117.131C119.624 419.825 125.132 425.333 132.127 427.827V461.718C106.866 458.076 86.8817 438.092 83.24 412.831ZM148.643 461.718V427.827C155.637 425.333 161.145 419.825 163.639 412.831H197.53C193.888 438.092 173.904 458.076 148.643 461.718Z" fill="#EAB317"/>
</g>
<defs>
<clipPath id="clip0_8_170">
<rect width="512" height="512" fill="white"/>
</clipPath>
</defs>
</svg>
